<mxfile host="app.diagrams.net" modified="2023-12-14T19:36:48.683Z" agent="Mozilla/5.0 (Windows NT 10.0; Win64; x64) AppleWebKit/537.36 (KHTML, like Gecko) Chrome/120.0.0.0 Safari/537.36" etag="uLbvharPq6O9TLdpHBI8" version="22.1.9" type="github">
  <diagram name="Page-1" id="brKmT-EkNB2ks8HkJRCC">
    <mxGraphModel dx="1077" dy="920" grid="1" gridSize="10" guides="1" tooltips="1" connect="1" arrows="1" fold="1" page="1" pageScale="1" pageWidth="827" pageHeight="1169" math="0" shadow="0">
      <root>
        <mxCell id="0" />
        <mxCell id="1" parent="0" />
        <mxCell id="FxCQj33LjYp6d0i4RSg2-48" value="" style="group" vertex="1" connectable="0" parent="1">
          <mxGeometry x="45" y="139" width="90" height="138" as="geometry" />
        </mxCell>
        <mxCell id="FxCQj33LjYp6d0i4RSg2-2" value="" style="image;aspect=fixed;html=1;points=[];align=center;fontSize=12;image=img/lib/azure2/databases/Azure_Database_PostgreSQL_Server.svg;" vertex="1" parent="FxCQj33LjYp6d0i4RSg2-48">
          <mxGeometry x="15" width="75" height="100" as="geometry" />
        </mxCell>
        <mxCell id="FxCQj33LjYp6d0i4RSg2-44" value="Postgre PRD" style="text;html=1;align=center;verticalAlign=middle;resizable=0;points=[];autosize=1;strokeColor=none;fillColor=none;" vertex="1" parent="FxCQj33LjYp6d0i4RSg2-48">
          <mxGeometry y="108" width="90" height="30" as="geometry" />
        </mxCell>
        <mxCell id="FxCQj33LjYp6d0i4RSg2-49" value="" style="group" vertex="1" connectable="0" parent="1">
          <mxGeometry x="150.00000000000003" y="480" width="90" height="138" as="geometry" />
        </mxCell>
        <mxCell id="FxCQj33LjYp6d0i4RSg2-50" value="" style="image;aspect=fixed;html=1;points=[];align=center;fontSize=12;image=img/lib/azure2/databases/Azure_Database_PostgreSQL_Server.svg;" vertex="1" parent="FxCQj33LjYp6d0i4RSg2-49">
          <mxGeometry x="15" width="75" height="100" as="geometry" />
        </mxCell>
        <mxCell id="FxCQj33LjYp6d0i4RSg2-51" value="Postgre Dev" style="text;html=1;align=center;verticalAlign=middle;resizable=0;points=[];autosize=1;strokeColor=none;fillColor=none;" vertex="1" parent="FxCQj33LjYp6d0i4RSg2-49">
          <mxGeometry y="108" width="90" height="30" as="geometry" />
        </mxCell>
        <mxCell id="FxCQj33LjYp6d0i4RSg2-55" value="Data Source" style="swimlane;startSize=23;" vertex="1" parent="1">
          <mxGeometry x="9.28" y="100" width="180.72" height="190" as="geometry" />
        </mxCell>
        <mxCell id="FxCQj33LjYp6d0i4RSg2-57" value="" style="group" vertex="1" connectable="0" parent="1">
          <mxGeometry x="220" y="99" width="180.72000000000003" height="190" as="geometry" />
        </mxCell>
        <mxCell id="FxCQj33LjYp6d0i4RSg2-54" value="" style="group" vertex="1" connectable="0" parent="FxCQj33LjYp6d0i4RSg2-57">
          <mxGeometry x="40" y="51" width="90" height="116" as="geometry" />
        </mxCell>
        <mxCell id="FxCQj33LjYp6d0i4RSg2-3" value="" style="sketch=0;outlineConnect=0;fontColor=#ffffff;fillColor=#d80073;strokeColor=#A50040;dashed=0;verticalLabelPosition=bottom;verticalAlign=top;align=center;html=1;fontSize=12;fontStyle=0;aspect=fixed;pointerEvents=1;shape=mxgraph.aws4.glue_crawlers;" vertex="1" parent="FxCQj33LjYp6d0i4RSg2-54">
          <mxGeometry width="78" height="78" as="geometry" />
        </mxCell>
        <mxCell id="FxCQj33LjYp6d0i4RSg2-45" value="Glue Crawler" style="text;html=1;align=center;verticalAlign=middle;resizable=0;points=[];autosize=1;strokeColor=none;fillColor=none;" vertex="1" parent="FxCQj33LjYp6d0i4RSg2-54">
          <mxGeometry y="86" width="90" height="30" as="geometry" />
        </mxCell>
        <mxCell id="FxCQj33LjYp6d0i4RSg2-56" value="Aws Glue ETL Crawler" style="swimlane;" vertex="1" parent="FxCQj33LjYp6d0i4RSg2-57">
          <mxGeometry width="180.72" height="190" as="geometry" />
        </mxCell>
        <mxCell id="FxCQj33LjYp6d0i4RSg2-58" value="Cataloging" style="swimlane;" vertex="1" parent="1">
          <mxGeometry x="440.14" y="99" width="299.86" height="301" as="geometry" />
        </mxCell>
        <mxCell id="FxCQj33LjYp6d0i4RSg2-16" value="" style="sketch=0;outlineConnect=0;fontColor=#232F3E;gradientColor=none;fillColor=#8C4FFF;strokeColor=none;dashed=0;verticalLabelPosition=bottom;verticalAlign=top;align=center;html=1;fontSize=12;fontStyle=0;aspect=fixed;pointerEvents=1;shape=mxgraph.aws4.glue_data_catalog;" vertex="1" parent="FxCQj33LjYp6d0i4RSg2-58">
          <mxGeometry x="73.86000000000001" y="47" width="72" height="78" as="geometry" />
        </mxCell>
        <mxCell id="FxCQj33LjYp6d0i4RSg2-30" value="Tables" style="shape=table;startSize=15;container=1;collapsible=0;childLayout=tableLayout;strokeColor=#A50040;fontSize=16;fillColor=#d80073;fontColor=#ffffff;" vertex="1" parent="FxCQj33LjYp6d0i4RSg2-58">
          <mxGeometry x="189.86" y="65" width="61" height="60" as="geometry" />
        </mxCell>
        <mxCell id="FxCQj33LjYp6d0i4RSg2-31" value="" style="shape=tableRow;horizontal=0;startSize=0;swimlaneHead=0;swimlaneBody=0;strokeColor=inherit;top=0;left=0;bottom=0;right=0;collapsible=0;dropTarget=0;fillColor=none;points=[[0,0.5],[1,0.5]];portConstraint=eastwest;fontSize=16;" vertex="1" parent="FxCQj33LjYp6d0i4RSg2-30">
          <mxGeometry y="15" width="61" height="15" as="geometry" />
        </mxCell>
        <mxCell id="FxCQj33LjYp6d0i4RSg2-32" value="" style="shape=partialRectangle;html=1;whiteSpace=wrap;connectable=0;strokeColor=inherit;overflow=hidden;fillColor=none;top=0;left=0;bottom=0;right=0;pointerEvents=1;fontSize=16;" vertex="1" parent="FxCQj33LjYp6d0i4RSg2-31">
          <mxGeometry width="20" height="15" as="geometry">
            <mxRectangle width="20" height="15" as="alternateBounds" />
          </mxGeometry>
        </mxCell>
        <mxCell id="FxCQj33LjYp6d0i4RSg2-33" value="" style="shape=partialRectangle;html=1;whiteSpace=wrap;connectable=0;strokeColor=inherit;overflow=hidden;fillColor=none;top=0;left=0;bottom=0;right=0;pointerEvents=1;fontSize=16;" vertex="1" parent="FxCQj33LjYp6d0i4RSg2-31">
          <mxGeometry x="20" width="20" height="15" as="geometry">
            <mxRectangle width="20" height="15" as="alternateBounds" />
          </mxGeometry>
        </mxCell>
        <mxCell id="FxCQj33LjYp6d0i4RSg2-34" value="" style="shape=partialRectangle;html=1;whiteSpace=wrap;connectable=0;strokeColor=inherit;overflow=hidden;fillColor=none;top=0;left=0;bottom=0;right=0;pointerEvents=1;fontSize=16;" vertex="1" parent="FxCQj33LjYp6d0i4RSg2-31">
          <mxGeometry x="40" width="21" height="15" as="geometry">
            <mxRectangle width="21" height="15" as="alternateBounds" />
          </mxGeometry>
        </mxCell>
        <mxCell id="FxCQj33LjYp6d0i4RSg2-35" value="" style="shape=tableRow;horizontal=0;startSize=0;swimlaneHead=0;swimlaneBody=0;strokeColor=inherit;top=0;left=0;bottom=0;right=0;collapsible=0;dropTarget=0;fillColor=none;points=[[0,0.5],[1,0.5]];portConstraint=eastwest;fontSize=16;" vertex="1" parent="FxCQj33LjYp6d0i4RSg2-30">
          <mxGeometry y="30" width="61" height="15" as="geometry" />
        </mxCell>
        <mxCell id="FxCQj33LjYp6d0i4RSg2-36" value="" style="shape=partialRectangle;html=1;whiteSpace=wrap;connectable=0;strokeColor=inherit;overflow=hidden;fillColor=none;top=0;left=0;bottom=0;right=0;pointerEvents=1;fontSize=16;" vertex="1" parent="FxCQj33LjYp6d0i4RSg2-35">
          <mxGeometry width="20" height="15" as="geometry">
            <mxRectangle width="20" height="15" as="alternateBounds" />
          </mxGeometry>
        </mxCell>
        <mxCell id="FxCQj33LjYp6d0i4RSg2-37" value="" style="shape=partialRectangle;html=1;whiteSpace=wrap;connectable=0;strokeColor=inherit;overflow=hidden;fillColor=none;top=0;left=0;bottom=0;right=0;pointerEvents=1;fontSize=16;" vertex="1" parent="FxCQj33LjYp6d0i4RSg2-35">
          <mxGeometry x="20" width="20" height="15" as="geometry">
            <mxRectangle width="20" height="15" as="alternateBounds" />
          </mxGeometry>
        </mxCell>
        <mxCell id="FxCQj33LjYp6d0i4RSg2-38" value="" style="shape=partialRectangle;html=1;whiteSpace=wrap;connectable=0;strokeColor=inherit;overflow=hidden;fillColor=none;top=0;left=0;bottom=0;right=0;pointerEvents=1;fontSize=16;" vertex="1" parent="FxCQj33LjYp6d0i4RSg2-35">
          <mxGeometry x="40" width="21" height="15" as="geometry">
            <mxRectangle width="21" height="15" as="alternateBounds" />
          </mxGeometry>
        </mxCell>
        <mxCell id="FxCQj33LjYp6d0i4RSg2-39" value="" style="shape=tableRow;horizontal=0;startSize=0;swimlaneHead=0;swimlaneBody=0;strokeColor=inherit;top=0;left=0;bottom=0;right=0;collapsible=0;dropTarget=0;fillColor=none;points=[[0,0.5],[1,0.5]];portConstraint=eastwest;fontSize=16;" vertex="1" parent="FxCQj33LjYp6d0i4RSg2-30">
          <mxGeometry y="45" width="61" height="15" as="geometry" />
        </mxCell>
        <mxCell id="FxCQj33LjYp6d0i4RSg2-40" value="" style="shape=partialRectangle;html=1;whiteSpace=wrap;connectable=0;strokeColor=inherit;overflow=hidden;fillColor=none;top=0;left=0;bottom=0;right=0;pointerEvents=1;fontSize=16;" vertex="1" parent="FxCQj33LjYp6d0i4RSg2-39">
          <mxGeometry width="20" height="15" as="geometry">
            <mxRectangle width="20" height="15" as="alternateBounds" />
          </mxGeometry>
        </mxCell>
        <mxCell id="FxCQj33LjYp6d0i4RSg2-41" value="" style="shape=partialRectangle;html=1;whiteSpace=wrap;connectable=0;strokeColor=inherit;overflow=hidden;fillColor=none;top=0;left=0;bottom=0;right=0;pointerEvents=1;fontSize=16;" vertex="1" parent="FxCQj33LjYp6d0i4RSg2-39">
          <mxGeometry x="20" width="20" height="15" as="geometry">
            <mxRectangle width="20" height="15" as="alternateBounds" />
          </mxGeometry>
        </mxCell>
        <mxCell id="FxCQj33LjYp6d0i4RSg2-42" value="" style="shape=partialRectangle;html=1;whiteSpace=wrap;connectable=0;strokeColor=inherit;overflow=hidden;fillColor=none;top=0;left=0;bottom=0;right=0;pointerEvents=1;fontSize=16;" vertex="1" parent="FxCQj33LjYp6d0i4RSg2-39">
          <mxGeometry x="40" width="21" height="15" as="geometry">
            <mxRectangle width="21" height="15" as="alternateBounds" />
          </mxGeometry>
        </mxCell>
        <mxCell id="FxCQj33LjYp6d0i4RSg2-46" value="Glue Data Catlog" style="text;html=1;align=center;verticalAlign=middle;resizable=0;points=[];autosize=1;strokeColor=none;fillColor=none;" vertex="1" parent="FxCQj33LjYp6d0i4RSg2-58">
          <mxGeometry x="49.860000000000014" y="125" width="120" height="30" as="geometry" />
        </mxCell>
        <mxCell id="FxCQj33LjYp6d0i4RSg2-52" value="" style="group" vertex="1" connectable="0" parent="FxCQj33LjYp6d0i4RSg2-58">
          <mxGeometry x="65.86000000000001" y="181" width="80" height="90" as="geometry" />
        </mxCell>
        <mxCell id="FxCQj33LjYp6d0i4RSg2-15" value="" style="outlineConnect=0;dashed=0;verticalLabelPosition=bottom;verticalAlign=top;align=center;html=1;shape=mxgraph.aws3.s3;fillColor=#E05243;gradientColor=none;" vertex="1" parent="FxCQj33LjYp6d0i4RSg2-52">
          <mxGeometry x="10" width="64" height="60" as="geometry" />
        </mxCell>
        <mxCell id="FxCQj33LjYp6d0i4RSg2-47" value="Bucket S3" style="text;html=1;align=center;verticalAlign=middle;resizable=0;points=[];autosize=1;strokeColor=none;fillColor=none;" vertex="1" parent="FxCQj33LjYp6d0i4RSg2-52">
          <mxGeometry y="60" width="80" height="30" as="geometry" />
        </mxCell>
        <mxCell id="FxCQj33LjYp6d0i4RSg2-76" value="" style="group" vertex="1" connectable="0" parent="1">
          <mxGeometry x="420" y="430" width="289.36" height="220" as="geometry" />
        </mxCell>
        <mxCell id="FxCQj33LjYp6d0i4RSg2-14" value="" style="sketch=0;points=[[0,0,0],[0.25,0,0],[0.5,0,0],[0.75,0,0],[1,0,0],[0,1,0],[0.25,1,0],[0.5,1,0],[0.75,1,0],[1,1,0],[0,0.25,0],[0,0.5,0],[0,0.75,0],[1,0.25,0],[1,0.5,0],[1,0.75,0]];outlineConnect=0;fontColor=#232F3E;fillColor=#8C4FFF;strokeColor=#ffffff;dashed=0;verticalLabelPosition=bottom;verticalAlign=top;align=center;html=1;fontSize=12;fontStyle=0;aspect=fixed;shape=mxgraph.aws4.resourceIcon;resIcon=mxgraph.aws4.glue;" vertex="1" parent="FxCQj33LjYp6d0i4RSg2-76">
          <mxGeometry x="160" y="50.00000000000006" width="78" height="78" as="geometry" />
        </mxCell>
        <mxCell id="FxCQj33LjYp6d0i4RSg2-73" value="ETL Jobs" style="swimlane;startSize=23;" vertex="1" parent="FxCQj33LjYp6d0i4RSg2-76">
          <mxGeometry width="289.36" height="220" as="geometry" />
        </mxCell>
        <mxCell id="FxCQj33LjYp6d0i4RSg2-12" value="" style="sketch=0;outlineConnect=0;fontColor=#232F3E;gradientColor=none;fillColor=#01A88D;strokeColor=none;dashed=0;verticalLabelPosition=bottom;verticalAlign=top;align=center;html=1;fontSize=12;fontStyle=0;aspect=fixed;pointerEvents=1;shape=mxgraph.aws4.devops_guru_insights;" vertex="1" parent="FxCQj33LjYp6d0i4RSg2-73">
          <mxGeometry x="40" y="120" width="69.1" height="70" as="geometry" />
        </mxCell>
        <mxCell id="FxCQj33LjYp6d0i4RSg2-74" value="Glue Jobs" style="text;html=1;align=center;verticalAlign=middle;resizable=0;points=[];autosize=1;strokeColor=none;fillColor=none;" vertex="1" parent="FxCQj33LjYp6d0i4RSg2-73">
          <mxGeometry x="160" y="128" width="80" height="30" as="geometry" />
        </mxCell>
        <mxCell id="FxCQj33LjYp6d0i4RSg2-75" value="Script Spark" style="text;html=1;align=center;verticalAlign=middle;resizable=0;points=[];autosize=1;strokeColor=none;fillColor=none;" vertex="1" parent="FxCQj33LjYp6d0i4RSg2-73">
          <mxGeometry x="29.55000000000001" y="190" width="90" height="30" as="geometry" />
        </mxCell>
        <mxCell id="FxCQj33LjYp6d0i4RSg2-77" value="Data Target" style="swimlane;startSize=23;" vertex="1" parent="1">
          <mxGeometry x="104.64" y="430" width="180.72" height="190" as="geometry" />
        </mxCell>
      </root>
    </mxGraphModel>
  </diagram>
</mxfile>
